<?xml version="1.0" encoding="UTF-8"?>
<svg id="Layer_2" data-name="Layer 2" xmlns="http://www.w3.org/2000/svg" viewBox="0 0 835.88 430.46">
  <g id="Layer_1-2" data-name="Layer 1-2">
    <g>
      <path d="m102.68,367.92c-1.71,24.02-15.47,56.33-44.21,56.93-19.49.08-38.98.16-58.47.25.4-3.27.6-4.91,1-8.18,18.04,1.43,17.46-26.43,18.88-37.58,3.82-33.98,7.64-67.96,11.45-101.94,1.07-8.55,7.98-40.98-10.87-35.78.41-3.38.62-5.08,1.03-8.46,16.94-2.57,33.9-5.02,50.88-7.33,27.31-3.47,35.91,24.45,33.33,46.57-1.76,15.1-8.26,32.46-19.63,43.27,17.28,10.04,17.79,35.47,16.6,52.25h0Zm-24.52.92c1.57-11.59,2.23-43.41-17.72-41.73-4.67.33-7.01.5-11.68.84-2.47,22.58-4.95,45.16-7.43,67.75-1.23,11.07.56,15.57,6.57,15.49,2.16-.03,3.25-.05,5.41-.07,18.84-1.98,22.94-28.18,24.85-42.28h0Zm-27.75-54.72c3.55-.29,5.32-.44,8.87-.73,17.05-2.59,22.15-24.94,23.78-38.9,1.33-11.41,2.42-36.61-16.02-34.07-3.48.44-5.23.66-8.71,1.12-2.64,24.19-5.28,48.38-7.92,72.58h0Z" style="fill: #fff; stroke-width: 0px;"/>
      <path d="m108.38,415.86c18.47,1.38,17.73-28.7,19.15-40.2,4.05-36.24,8.11-72.47,12.18-108.71.93-8.98,8.77-42.85-10.62-38.9.43-3.6.65-5.4,1.09-9.01,27.22-2.62,54.43-4.58,81.75-5.7-1.37,16.1-2.74,32.2-4.11,48.31-1.7.05-2.56.08-4.26.14-.04-2.81-.07-4.21-.11-7.02.07-10.31.51-27.81-14.71-25.66-8.46.44-12.68.7-21.13,1.27-2.89,25.51-5.78,51.03-8.67,76.55,2.34-.11,3.51-.16,5.86-.26,19.42,1.37,19.54-19.21,21.39-33.36,1.86-.08,2.8-.12,4.66-.19-3.01,26.68-6.02,53.37-9.02,80.06-1.85.04-2.78.06-4.63.1,1.6-11.93,6.16-35.64-13.76-31.96-2.5.1-3.75.15-6.25.25-1.77,16.1-3.53,32.21-5.29,48.31-.96,9.39-9.13,42.41,10.05,40.06,4.65-.03,6.98-.05,11.63-.08,15.02.72,18.19-15.13,20.38-26.77.6-2.81.9-4.22,1.49-7.03,1.69-.02,2.53-.03,4.22-.05-2.28,16.16-4.56,32.31-6.83,48.47-28.5.04-57.01.11-85.51.2.42-3.53.64-5.29,1.06-8.82h-.01Z" style="fill: #fff; stroke-width: 0px;"/>
      <path d="m242.78,346.08c-1.72,13.94-5.25,85.49-28.41,84.35-10.7-.52-12.99-17.65-11.86-26.71.78-6.25,3.38-12.68,7.6-12.7,9.44-.06,3.54,23.65,8.52,21.79,11.16-4.17,12.61-49.34,14.66-66,3.26-28.01,6.55-56.03,9.85-84.03,1.06-9.66,9.25-42.85-10.14-40.83.46-3.68.7-5.51,1.16-9.19,10.77-.1,21.52-.09,32.29.04,11.3,44.12,22.45,88.28,33.53,132.46,2.22-17.69,4.46-35.37,6.7-53.05,1.81-13.35,6.44-84.47,29.75-81.3,10.64,1.45,12.8,17.72,11.64,27.16-.75,6.09-3.44,12.08-7.96,11.68-9.65-.86-3.3-23.4-8.47-21.92-10.78,3.09-13.6,48.02-15.77,63.75-5.89,45.69-11.68,91.39-17.38,137.1h-4.41c-13.71-55.11-27.54-110.18-41.6-165.19-3.25,27.53-6.48,55.06-9.7,82.59h0Z" style="fill: #fff; stroke-width: 0px;"/>
      <path d="m367.56,349.35c-2.06,14.13-7.26,82.61-29.69,81.08-10.45-.71-12.82-17.03-11.51-26.37.86-6.16,3.55-12.44,7.78-12.36,9.46.18,3.15,23.3,8.24,21.52,11.06-3.87,13.33-47.61,15.64-63.71,3.67-26.79,7.39-53.57,11.16-80.35,1.44-10.8,9.48-40.27-9.66-40.81.52-3.51.78-5.26,1.31-8.76,10.87,1.5,21.68,3.14,32.51,4.91,10.32,42.46,20.73,84.89,31.34,127.28,2.45-16.19,4.91-32.39,7.4-48.57,2.06-12.63,7.39-77.31,30.36-71.94,10.29,2.41,12.55,16.19,11.08,25.53-.86,5.47-3.5,10.72-7.93,10.05-9.46-1.44-3.09-21.74-8.05-20.59-9.63,2.23-14.05,43.15-16.36,57.04-6.48,41.83-12.87,83.66-19.16,125.52h-4.4c-13.26-52.56-26.18-105.2-39.01-157.87-3.73,26.13-7.41,52.27-11.04,78.41h0Z" style="fill: #fff; stroke-width: 0px;"/>
      <path d="m452.33,416.9c17.72,1.79,18.44-24.7,20.4-35.95,5.11-31.97,10.28-63.93,15.49-95.89,1.61-10.64,9.06-36.23-9.28-37.35.54-3.15.81-4.72,1.36-7.86,26.79,4.75,53.6,9.27,80.53,13.23-1.76,13-3.51,26-5.26,39-1.68-.19-2.52-.28-4.2-.48.03-2.32.04-3.48.07-5.81.83-11.22-.57-22.34-13.77-23.8-8.32-1.22-12.48-1.85-20.82-3.15-3.62,21.53-7.22,43.06-10.8,64.59,2.32.23,3.49.34,5.81.57,17.02,2.57,20.11-10.71,22.09-25.33,1.84.21,2.76.32,4.6.53-3.72,22.06-7.43,44.12-11.11,66.19-1.84-.11-2.76-.16-4.6-.27,2.47-12.81,5.49-29.44-12.75-28.67-2.48-.21-3.73-.32-6.21-.54-2.24,13.87-4.48,27.74-6.7,41.61-1.31,8.69-9.74,37.58,8.83,35.24,4.64.08,6.97.11,11.61.19,13.42.49,18.46-10.29,21.05-21.82.67-2.31,1-3.46,1.67-5.77,1.68.06,2.52.1,4.2.16-2.71,13.32-5.4,26.64-8.08,39.96-28.49-.12-56.99-.26-85.48-.4.54-3.27.81-4.91,1.35-8.18h0Z" style="fill: #fff; stroke-width: 0px;"/>
      <path d="m610.01,386.14c-1.7,8.69-8.85,34.74,8.86,32.45-.54,2.86-.81,4.29-1.34,7.16-17.55-.04-35.09-.09-52.64-.16.54-2.96.81-4.44,1.35-7.39,16.85,1.79,18.35-21.37,20.18-32.69,6.67-38.36,13.38-76.72,20.12-115.07-4.23-.39-6.34-.6-10.57-1.04-15.51-2.42-22.32,5.1-26.77,18.72-2.16-.23-3.24-.35-5.39-.6,3.25-10.9,6.51-21.79,9.78-32.68,30.96,3.93,61.89,6.71,93.08,7.69-.51,10.7-1.01,21.41-1.52,32.11-1.91-.04-2.87-.06-4.79-.1.32-14.21-4.79-21.36-19.55-21.55-4.31-.24-6.46-.37-10.76-.66-6.7,37.93-13.39,75.86-20.05,113.8h.01Z" style="fill: #fff; stroke-width: 0px;"/>
      <path d="m712.19,386.65c-1.68,8.64-8.72,34.46,8.93,31.97-.53,2.86-.8,4.29-1.33,7.15-17.55.03-35.09.05-52.64.05.53-2.83.8-4.24,1.33-7.07,16.64,1.63,18.23-20.44,20.09-31.84,6.64-37.79,13.26-75.58,19.84-113.38-4.23.19-6.35.26-10.58.37-15.36-.29-22.18,7.23-26.71,20.84-2.15-.02-3.23-.04-5.39-.08,3.23-10.66,6.46-21.32,9.69-31.98,31.38,0,62.3-2.12,93.32-6.9-.49,11.13-.99,22.27-1.48,33.4-1.92.26-2.89.39-4.81.63.33-14.33-4.7-21.18-19.67-18.83-4.32.46-6.48.66-10.8,1.03-6.56,38.22-13.16,76.43-19.81,114.64h.02Z" style="fill: #fff; stroke-width: 0px;"/>
      <path d="m753.8,430.44h-5c3.54-20.67,7.06-41.34,10.57-62.02,2.08-.12,3.12-.18,5.21-.3-2.22,16.38.36,50.39,23.23,49.21,14.45-.75,22.15-18.87,22.79-31.52.74-14.73-10.15-25.55-20.29-34.89-13.9-12.79-18.73-29.24-18.49-47.1.32-23.56,13.6-53.65,38.7-62.04,11.09-3.71,15.05-2.77,17.79.5,1.48-4.56,3.2-11.14,4.31-19.23,1.32-1.59,1.97-2.41,3.26-4.06-1.7,25.67-3.7,51.29-6.05,76.9-1.63,1.06-2.46,1.57-4.14,2.56.42-7.79,5.17-51.3-14.8-43.59-12.62,4.88-19.03,18.07-19.76,31.17-.76,13.58,9.01,23.19,18.63,31.08,14.78,12.11,18.87,28.02,18.82,46-.06,24.78-8.1,66.93-41.55,67.33-10.43.13-19.82-5.96-25.37-14.72-2.33,2.86-5.98,8.53-7.86,14.72h0Z" style="fill: #fff; stroke-width: 0px;"/>
    </g>
    <g>
      <path d="m128.3,202.34c-.06-8.01-.82-15.96-3.61-18.71-12.82,18.77-32.84,31.91-55.2,35.31C9.01,228.13-4.47,158.81,2.3,114.61,9.97,64.5,48.18-.17,106.85,0c19.56.06,36.65,9.8,44.7,28.06,4.08-3.35,7.08-10.62,10.07-18.85,3.56-.01,5.33-.02,8.89-.03-4.19,24.17-8.39,48.33-12.59,72.5-3.58.12-5.36.18-8.94.3-.21-24.52-3.69-66.9-36.91-66.83-41.91.09-57.21,63.94-62.66,95.75-3.98,23.27-13.07,97.67,30.03,91.23,33.79-5.05,52.44-45.43,61.7-74.06,3.59-.21,5.38-.31,8.97-.51-4.28,24.64-8.55,49.27-12.81,73.91-3.6.34-5.41.52-9.01.88h0Z" style="fill: #fff; stroke-width: 0px;"/>
      <path d="m197.27,167.51c-10.55,15.41-1.65,25.77,15.98,24.09-.51,3.39-.76,5.09-1.27,8.48-22.39.93-44.71,2.4-67.04,4.33.52-3.5.78-5.24,1.31-8.73,19.57-1.08,28.06-15.23,36.76-31.1C214.49,109.53,246.76,54.95,278.38,0h5.81c13.03,55.16,26.17,110.29,39.36,165.41,3.54,16.93,8.21,29.71,27.14,31.11-.46,3.39-.69,5.09-1.15,8.48-31.16-3.39-62.3-5.17-93.64-5.58.49-3.36.74-5.04,1.23-8.39,17.09.64,30.2-4.73,24.6-24.11-2.56-11.07-5.12-22.14-7.68-33.21-19.18-.27-38.34-.23-57.53.09-6.45,11.22-12.87,22.46-19.26,33.71h0Zm60.81-105.12c-11.26,19.33-22.55,38.66-33.8,58,15.57-.21,31.15-.25,46.72,0-4.33-19.33-8.63-38.66-12.92-58h0Z" style="fill: #fff; stroke-width: 0px;"/>
      <path d="m347.51,196.17c24.54,2.87,28.86-13.93,31.77-35.37,5.3-35.32,10.47-70.67,15.53-106.03,3.4-20.23,5.29-40.09-19.91-40.17.56-3.52.84-5.29,1.41-8.82,30.08.14,60.17.29,90.25.44-.54,3.8-.81,5.7-1.36,9.49-24.88-.73-27.17,20.31-29.93,40.91-4.77,35.38-9.63,70.76-14.6,106.11-3.15,21.07-5.51,39.9,19.45,43.71,7.31,1.24,10.96,1.87,18.26,3.11,19.88,4.2,28.32-4.09,33.3-22.41.85-2.83,1.28-4.25,2.12-7.09,2.88.4,4.32.6,7.19.99-2.79,15.99-5.61,31.97-8.46,47.94-48.73-8.71-97.36-18.48-146.53-24.4.6-3.37.9-5.06,1.5-8.43v.02Z" style="fill: #fff; stroke-width: 0px;"/>
      <path d="m501.42,220.9c26.27,4.61,27.61-18.96,30.54-39.57,4.99-39.91,9.92-79.82,14.8-119.75,2.79-19.78,7.01-45.95-20.04-45.13.54-3.97.81-5.96,1.35-9.94,45.79.2,91.58.34,137.36.37-1.35,18.48-2.69,36.96-4.03,55.44-2.87-.02-4.3-.03-7.17-.05-.24-3.24-.36-4.85-.6-8.09-1.15-18.51-5.1-31.04-26.25-30.45-11.84-.08-23.68-.18-35.52-.3-3.44,28.76-6.89,57.52-10.35,86.28,3.96.22,5.94.32,9.89.52,26.06,1.5,31.93-11.41,34.24-35.89,3.14.07,4.71.1,7.85.16-3.53,30.39-7.07,60.79-10.62,91.18-3.13-.17-4.7-.25-7.83-.44,3.43-24.55,1.23-37.13-25.11-38.47-4.23-.25-6.34-.38-10.57-.65-2.09,18-4.19,36-6.3,54-2.47,19.99-7.7,46.1,19.29,47.56,7.9.85,11.85,1.24,19.74,1.94,21.29,2.73,28.53-9.72,33.03-28.31.85-3.19,1.27-4.78,2.12-7.97,2.86.11,4.29.16,7.15.24-2.91,18.43-5.83,36.85-8.75,55.28-48.96-3.04-97.27-10.18-145.57-18.54.54-3.76.81-5.65,1.36-9.42h0Z" style="fill: #fff; stroke-width: 0px;"/>
      <path d="m832.15,157.92c-5.08,40.59-23.86,78.77-68.25,85.74-33.14,4.76-66.11,6.52-99.57,5.95.55-4.19.82-6.28,1.36-10.48,26.82,1.63,28.29-26.92,30.51-47.38,5.02-42.56,10.04-85.11,15.1-127.66,2.69-19.62,7.74-47.95-19.92-46.71.55-4.21.83-6.31,1.38-10.52,28.59-.03,57.18-.12,85.77-.27,31.12-.92,62.3,16.57,56.58,51.26-3.06,18.56-13.3,41.25-29.15,52.46,22.88,4.09,28.68,27.63,26.18,47.6h.01Zm-37.15,14.69c2.56-22.01-5.22-48.58-32.12-46.47-7.93.67-11.9.96-19.83,1.46-3.24,27.89-6.47,55.79-9.68,83.68-1.62,13.8,1.63,19.25,11.88,18.12,3.69-.41,5.53-.63,9.23-1.1,25.36-4.38,37.88-32.94,40.52-55.69h0Zm-49.74-61.91c6.01-.34,9.02-.54,15.04-.97,23.6-1.64,35.92-25.16,38.62-46.04,2.69-20.82-3.94-41.79-28.74-40.62-5.88.11-8.82.15-14.7.24-3.43,29.13-6.83,58.25-10.22,87.38h0Z" style="fill: #fff; stroke-width: 0px;"/>
    </g>
  </g>
</svg>