<?xml version="1.0" encoding="UTF-8"?>
<svg id="Layer_1" data-name="Layer 1" xmlns="http://www.w3.org/2000/svg" viewBox="0 0 256 256.04">
  <path d="m100.87,241.86c2.18-9.25,4.24-18.72,2.98-22.46-7.75,9.72-21.14,29.64-35.84,21.7-15.97-8.63-29.39-27.85-40.72-42.11C10.61,178-1.62,155.67,1.44,127.97c3.26-29.42,17.75-55.08,37.55-76.45,13.64-14.72,31.23-39.64,50.16-45.5,14.93-4.62,22.95,20.64,18.04,31.79,8.71-4.75,10.64-15.83,12.79-24.37,2.26-.03,3.39-.02,5.67.03-2.99,21.13-15.19,26.05-23.26,44.07-6.55,14.63-4.13,28.94-.26,43.77-2.57-.07-3.85-.1-6.39-.14-7.59-23.18-6.33-36.5.33-58.73,2.18-7.29,2.93-20.26-7.89-18.46-12.55,2.09-32.09,24.75-39.46,35.14-14.02,19.76-17.67,44.66-15.82,68.34,2.08,26.57,10.95,91.85,38.91,100.89,28.79,9.31,44.78-57.92,43.47-75.89,3.16-.06,4.75-.1,7.94-.17,10.32,32.05-4.87,61.35-16.77,90.46-2.24-.32-3.35-.49-5.56-.88Z" style="stroke-width: 0px;"/>
  <path d="m246.04,172.93c-11.78,27.23-37.95,57.87-64.78,71.5-17.72,8.12-37.91,12.41-57.44,11.5,2.24-4.51,3.47-6.76,6-11.24,21.92,1.22,34.78-35.93,40.03-50.83,8.89-46.69-23.98-84.66-19.8-131.13,3.1-10.96,23.11-47.31-2.84-49.01.18-4.93.25-7.37.34-12.23,15.96,2.63,31.8,7.9,45.66,16.36,19.59,12.57,44.97,37.86,52.16,60.2,4.4,13.69-1.69,30.51-11.82,40.12,20.12,10.16,20.24,36.81,12.48,54.76Zm-19.36,4.91c5.15-16.88,3.44-48.72-20.82-48.99-5.59-.04-8.44-.07-14.22-.13,7,31.94,5.93,56.32-8.16,86.21-7.29,14.03-8.87,19.18-3.22,17.59,2.03-.57,3.04-.87,5.04-1.52,19.83-7.8,35.52-33.94,41.38-53.16Zm-38.92-65.76c4.7.09,7.02.13,11.61.24,19.79,0,21.13-25.4,19.28-39.54-2.13-16.22-7.28-35.09-24.31-41.88-3.23-1.16-4.88-1.7-8.22-2.7.81,14.17-3.89,26.39-4.39,40.51-.53,14.7,2.84,29.14,6.04,43.37Z" style="stroke-width: 0px;"/>
</svg>